Coordinates
version=1
nRows=17
nColumns=36
inDegrees=yes

Units are S.I. units (second, meters, Newtons, ...)
If the header above contains a line with 'inDegrees', this indicates whether rotational values are in degrees (yes) or radians (no).

endheader
time	pelvis_tilt	pelvis_list	pelvis_rotation	pelvis_tx	pelvis_ty	pelvis_tz	hip_flexion_r	hip_adduction_r	hip_rotation_r	knee_angle_r	knee_angle_r_beta	ankle_angle_r	subtalar_angle_r	mtp_angle_r	hip_flexion_l	hip_adduction_l	hip_rotation_l	knee_angle_l	knee_angle_l_beta	ankle_angle_l	subtalar_angle_l	mtp_angle_l	lumbar_extension	lumbar_bending	lumbar_rotation	arm_flex_r	arm_add_r	arm_rot_r	elbow_flex_r	pro_sup_r	arm_flex_l	arm_add_l	arm_rot_l	elbow_flex_l	pro_sup_l
      6.51000000	    -33.14989302	     -0.70399410	      0.78822815	     -0.33656298	      0.62863874	     -0.67696153	    100.53566725	    -20.24450446	     -0.43683244	     93.93118794	      1.63940850	     33.51744024	      8.78254422	     -7.49999987	    100.80433225	    -18.91031372	     -0.16864863	     92.01059447	      1.60588782	     32.23053170	      7.68012452	     -7.49999987	    -36.41788109	     -0.05696835	     -0.00335964	    129.03360489	    -26.52501090	     42.56712897	     97.90149470	     95.74820028	    131.88929997	    -24.41186887	     45.59835159	     93.09524096	    102.07356368
      6.52000000	    -33.46211486	     -0.68358052	      0.94777590	     -0.33569756	      0.63192777	     -0.67762041	    100.34279434	    -20.30576239	     -0.42931556	     93.32126856	      1.62876340	     33.32514387	      8.58780345	     -7.49999987	    100.54514204	    -18.38227827	     -0.15567039	     91.32783415	      1.59397140	     31.82455168	      6.96378963	     -7.49999987	    -35.50311489	      0.06856224	     -0.03567196	    128.17732332	    -26.85776412	     42.29246783	     98.49248169	     95.98103311	    130.87625295	    -24.55246068	     45.08674061	     93.57033131	    102.31340123
      6.53000000	    -33.59515779	     -0.66136670	      1.10987494	     -0.33477970	      0.63566319	     -0.67830566	     99.92506307	    -20.37717585	     -0.43110964	     92.67642139	      1.61750869	     33.19880797	      8.49370737	     -7.49999987	    100.08597132	    -17.91993617	     -0.18963743	     90.64304331	      1.58201955	     31.57434040	      6.67253357	     -7.49999987	    -34.84483317	      0.20419682	     -0.09380284	    127.55418178	    -27.16791759	     42.29894222	     98.88644923	     96.09981543	    130.14847732	    -24.79147912	     44.92196809	     93.92130817	    102.45150637
      6.54000000	    -33.89960078	     -0.63774786	      1.30623256	     -0.33400291	      0.63931519	     -0.67903466	     99.67916552	    -20.46483117	     -0.42452022	     91.98681684	      1.60547282	     32.98809389	      8.35939395	     -7.49999987	     99.79336532	    -17.38843464	     -0.26944035	     89.89667206	      1.56899291	     31.16873380	      6.16285686	     -7.49999987	    -33.95348587	      0.35918305	     -0.18457499	    126.76246859	    -27.46688114	     42.15855358	     99.38621741	     96.23417779	    129.17977785	    -25.02776421	     44.52691043	     94.39525574	    102.63614198
      6.55000000	    -34.13824425	     -0.63312204	      1.47053172	     -0.33324451	      0.64320130	     -0.67968007	     99.33035136	    -20.54030780	     -0.49996000	     91.24638325	      1.59254982	     32.75868114	      8.20626418	     -7.49999987	     99.41653145	    -16.89390209	     -0.28942303	     89.10531155	      1.55518107	     30.70913235	      5.60704935	     -7.49999987	    -33.13447001	      0.50950112	     -0.23637113	    125.97155924	    -27.75032782	     42.00805970	     99.79239853	     96.36968102	    128.21359072	    -25.22594916	     44.14782308	     94.75314626	    102.84643888
      6.56000000	    -34.21107421	     -0.62947007	      1.60887437	     -0.33229832	      0.64764320	     -0.68014282	     98.74779183	    -20.54886019	     -0.58620107	     90.47582036	      1.57910096	     32.57008404	      8.00596912	     -7.49999987	     98.82269286	    -16.46757019	     -0.31503050	     88.27720912	      1.54072795	     30.32743704	      5.16118236	     -7.49999987	    -32.52780673	      0.62611243	     -0.27637951	    125.15021839	    -28.07564657	     41.82099288	    100.23962352	     96.50047717	    127.31231083	    -25.41891453	     43.78976504	     95.11426541	    103.03002627
      6.57000000	    -34.06499821	     -0.58804542	      1.63697630	     -0.33116910	      0.65274081	     -0.68029712	     97.89174884	    -20.41687583	     -0.67209268	     89.64149374	      1.56453921	     32.47132644	      7.99270047	     -7.49999987	     97.93081648	    -16.21317955	     -0.37697449	     87.42203676	      1.52580238	     30.19380087	      5.12634310	     -7.49999987	    -32.22718407	      0.63567113	     -0.28427991	    124.50980804	    -28.37803204	     41.91359759	    100.47005955	     96.54421103	    126.72225922	    -25.68102143	     43.83677202	     95.29593623	    103.08170425
      6.58000000	    -33.85215767	     -0.50545598	      1.70939911	     -0.32972946	      0.65820513	     -0.68041758	     96.95665651	    -20.34970413	     -0.75671050	     88.82829739	      1.55034626	     32.25642519	      7.74931045	     -7.49999987	     96.89619034	    -15.89208740	     -0.49287260	     86.53452257	      1.51031234	     29.90318434	      4.73399130	     -7.49999987	    -32.00639744	      0.59351381	     -0.32915001	    123.43902818	    -28.71304123	     41.37871788	    101.15208005	     96.65062380	    125.76413978	    -25.86357529	     43.26073545	     95.84235976	    103.19950111
      6.59000000	    -33.71621779	     -0.44118590	      1.74477245	     -0.32848946	      0.66361163	     -0.68045509	     96.09498594	    -20.23925874	     -0.84871377	     87.94836215	      1.53498849	     31.97108487	      7.51873083	     -7.49999987	     95.95209325	    -15.59041105	     -0.57259861	     85.58326125	      1.49370969	     29.57566919	      4.28376335	     -7.49999987	    -31.64753034	      0.53491180	     -0.35552254	    122.31193419	    -28.98243318	     40.93503204	    101.60538402	     96.76515402	    124.80057582	    -25.98817427	     42.79719143	     96.13505817	    103.32124788
      6.60000000	    -33.60931377	     -0.40473430	      1.75860563	     -0.32733519	      0.66906995	     -0.68050266	     95.23386316	    -20.08090348	     -0.97499736	     87.01651604	      1.51872471	     31.65913031	      7.21322913	     -7.49999987	     95.05308534	    -15.33759147	     -0.66370693	     84.60960442	      1.47671618	     29.15539991	      3.78204018	     -7.49999987	    -31.25384631	      0.50159008	     -0.34625101	    121.17291586	    -29.24804105	     40.53900933	    101.99152601	     96.91788046	    123.82844307	    -26.08789215	     42.32415940	     96.35864675	    103.45508682
      6.61000000	    -33.43129065	     -0.37669294	      1.76030279	     -0.32623890	      0.67459419	     -0.68052338	     94.29564986	    -19.90320708	     -1.08825053	     86.08025687	      1.50238390	     31.52850355	      7.22676854	     -7.49999987	     94.09727026	    -15.15636369	     -0.74829914	     83.67427285	      1.46039156	     29.00732291	      3.78908089	     -7.49999987	    -30.97588791	      0.50073886	     -0.36306995	    120.40096248	    -29.58359866	     40.71250556	    102.15803067	     96.95425764	    123.19584635	    -26.40034111	     42.38765122	     96.46612135	    103.48727034
      6.62000000	    -33.19373921	     -0.31669317	      1.82813205	     -0.32489846	      0.68049216	     -0.68059132	     93.25783177	    -19.81391152	     -1.20806311	     85.10885377	      1.48542972	     31.16538949	      6.88950479	     -7.49999987	     93.01191429	    -14.92692025	     -0.96581612	     82.61880205	      1.44197012	     28.53453795	      3.37340509	     -7.49999987	    -30.72884230	      0.47118570	     -0.42456453	    118.99904264	    -29.81259706	     40.00108704	    102.81338445	     97.03117294	    121.97855644	    -26.45271119	     41.59305735	     96.96126336	    103.58076260
      6.63000000	    -33.11118735	     -0.18574675	      1.87697753	     -0.32376499	      0.68611105	     -0.68068339	     92.44345769	    -19.73460365	     -1.27989189	     84.12807509	      1.46831190	     30.81104729	      6.60833492	     -7.49999987	     92.05623605	    -14.59849618	     -1.10843152	     81.54528482	      1.42323371	     28.07206701	      2.92957738	     -7.49999987	    -30.25898866	      0.36375372	     -0.50600582	    117.64209060	    -30.01639944	     39.54630955	    103.17843724	     97.10588179	    120.85721805	    -26.61081504	     41.08221765	     97.14343935	    103.70827436
      6.64000000	    -32.93056399	     -0.12922239	      1.91358205	     -0.32270051	      0.69187008	     -0.68081706	     91.47890228	    -19.62504848	     -1.39274827	     83.11143067	      1.45056811	     30.64908414	      6.61737596	     -7.49999987	     91.04206276	    -14.34834307	     -1.21126367	     80.48464338	      1.40472202	     27.88504745	      2.92766959	     -7.49999987	    -29.93887582	      0.36409659	     -0.54858765	    116.67292668	    -30.28030265	     39.69843037	    103.38594605	     97.14445096	    120.06057143	    -26.91585812	     41.11111919	     97.25420455	    103.74712952
      6.65000000	    -32.86775791	     -0.06144433	      1.94253064	     -0.32141363	      0.69760814	     -0.68096715	     90.62243119	    -19.49616133	     -1.50534810	     82.07027465	      1.43239651	     30.12844357	      6.10789439	     -7.49999987	     90.13394402	    -14.10415342	     -1.38777981	     79.38913309	      1.38560176	     27.19018300	      2.26012571	     -7.49999987	    -29.36293307	      0.29289213	     -0.59554328	    114.72508990	    -30.42131077	     38.64407522	    103.90624456	     97.31162160	    118.44753771	    -26.89052929	     40.08869123	     97.60451565	    103.89243331
      6.66000000	    -32.64013037	     -0.07302426	      1.88847935	     -0.32000847	      0.70364605	     -0.68097940	     89.50617933	    -19.27058724	     -1.72172981	     80.96451105	      1.41309730	     29.82782620	      5.93681483	     -7.49999987	     89.07436930	    -13.98885766	     -1.46822005	     78.32722376	      1.36706795	     26.84781064	      2.09135020	     -7.49999987	    -29.05028981	      0.24915128	     -0.50054109	    113.16306329	    -30.77072878	     38.12266196	    104.39467588	     97.40864583	    117.23693618	    -26.97639191	     39.64543143	     97.89747399	    103.98432383
      6.67000000	    -32.46720573	     -0.05946283	      1.85839865	     -0.31865287	      0.70968320	     -0.68104037	     88.46289385	    -19.07563428	     -1.92125825	     79.83455081	      1.39337577	     29.48508770	      5.66772466	     -7.49999987	     88.03999657	    -13.81854907	     -1.56442520	     77.20433655	      1.34746987	     26.44999858	      1.81640995	     -7.49999987	    -28.62063218	      0.21042364	     -0.43245260	    111.39888994	    -31.04272469	     37.46508237	    104.83133999	     97.49522947	    115.84081108	    -27.04870379	     39.04177695	     98.14585830	    104.07832536
